<svg xmlns="http://www.w3.org/2000/svg" width="250" height="250" viewBox="0 0 250 250">
<!-- SVG created with Arrow, by QuiverAI (https://quiver.ai) -->
  <path d="m243.4 141c-1.55-13.82-7.39-28.18-16.32-39.52l11.95 4.47c-4.77-12.64-10.95-22.19-18.18-29.65 12.17-12.88 16.55-41.77 12.28-55.07-0.42-1.3-1.65-1.48-1.65-1.48-19.43-1.96-37.92 6.55-48.19 16.89-5.43-2.41-15.13-4.12-15.13-4.12l10.69-6.25c-14.68-4.87-27.83-3.02-36.57 0.48 1.58-6 6.07-12.32 6.07-12.32-12.24 1.39-19.58 5.19-24.18 10.32-4.6-5.13-11.94-8.93-24.18-10.32 0 0 4.49 6.32 6.07 12.32-8.74-3.5-21.89-5.35-36.57-0.48l10.69 6.25s-8.03 1.43-14.66 4.12c-10.27-10.34-28.76-18.85-48.19-16.89 0 0-1.23 0.18-1.65 1.48-4.27 13.3 0.11 42.19 12.28 55.07-7.23 7.46-13.41 17.01-18.18 29.65l11.14-5.02c-8.93 9.52-14.16 24.08-14.88 39.34l9.26-7.8c-7.1 14.94-4.82 32.76-1.47 45.45 1.69-5.61 4.2-9.42 6.84-12.76-0.27 12.86 3.14 28.97 16.3 40.8l0.78-11.93c15.43 23.36 41.6 39.92 86.42 40.12h0.02c44.82-0.2 70.99-16.76 86.42-40.12l1.09 11.93c10.96-12.91 15.02-24.71 15.97-40.8 2.98 3.7 5.49 7.51 7.38 12.76 3.86-12.47 3.68-27.79-1.85-45.45l10.2 8.53z" fill="#F1E3C1"/>
  <path d="m16.55 21.09c12.53 3.98 25.43 16.52 31.08 26.63 0.48 0.86-0.01 0.97-0.56 1.05-6.18 0.91-10.79 4.21-14.16 6.42l11.85 3c0.62 0.17 0.5 0.89-0.05 1.28-7.22 5.21-11.92 9.71-17.08 16.32-10.92-12.72-15.62-41.73-11.08-54.7z" fill="#CE9F72"/>
  <path d="m232.6 20.72c-12.53 3.98-25.43 16.51-31.08 26.63-0.48 0.86 0.01 0.97 0.56 1.05 6.18 0.91 10.79 4.21 14.16 6.42l-11.85 3c-0.62 0.17-0.5 0.89 0.05 1.28 7.22 5.21 11.92 9.71 16.51 16.96 10.92-12.72 16.19-42.37 11.65-55.34z" fill="#CE9F72"/>
  <path d="m105.8 77.29c-1.16-10.21-12.75-15.31-22.16-15.08-4.68 0.12-9.78 1.76-11.98 3.8-1.49 1.97 0.17 3 1.8 2.87 9.22-0.22 18.7 3.24 25.26 11.02 3.04 4.02 7.73 2.98 7.08-2.61z" fill="#CE9F72"/>
  <path d="m142.2 77.29c1.16-10.21 12.75-15.31 22.16-15.08 4.68 0.12 9.78 1.76 11.98 3.8 1.49 1.97-0.17 3-1.8 2.87-9.22 0.6-17.45 3.24-24.01 11.02-3.04 4.02-8.84 2.98-8.33-2.61z" fill="#CE9F72"/>
  <path d="m102.2 104.2c-6.28-12.04-17.22-19.02-29.85-18.71-4.18 0.11-8.28 0.65-10.76 1.91-1.8 1.15-1.25 2.74 0.55 2.68 8.91 0.31 16.7 3.05 23.26 7.82-10.56-0.87-20.21 2.38-26.49 8.4-1.66 1.97 0.16 3.64 2.29 2.88 11.55-3.93 21.58-4.5 35.57 0 3.81 1.22 6.85-1.2 5.43-4.98z" fill="#754D29"/>
  <path d="m146.6 104.2c6.28-12.04 17.22-19.02 29.85-18.71 4.18 0.11 8.28 0.65 10.76 1.91 1.8 1.15 1.25 2.74-0.55 2.68-8.91 0.31-16.7 3.05-23.26 7.82 10.56-0.87 20.21 2.38 26.49 8.4 1.66 1.97-0.16 3.64-2.29 2.88-11.55-3.93-21.58-4.5-35.57 0-3.81 1.22-6.85-1.2-5.43-4.98z" fill="#754D29"/>
  <path d="m102.9 202.9c6.35 2.81 13.3 4.39 20.82 4.39s14.47-1.58 21.72-4.39c2.45-0.97 1.45 1.06 0 2.64-5.59 5.44-12.64 7.86-21.55 7.86-8.37 0-15.14-3.63-20.25-8.6-1.64-1.74-2.05-2.62-0.74-1.9z" fill="#CE9F72"/>
  <path d="m197.2 128.9c-20.46 6.03-43.83 8.02-70.37 8.28v-10.53c5.1-3.05 11-8.43 11.2-10.57 0.6-4.31-2.39-5.48-14.19-5.8h-0.14c-11.8 0.32-14.79 1.49-14.19 5.8 0.29 2.54 6.6 7.87 11.82 10.6v10.51c-25.25-0.24-48.6-3.25-68.65-8.61-2.67-0.75-2.89 2.29-2.6 5.34 4.1 29.2 26.11 62.82 73.55 62.82h0.21c42.99 0 69.42-29.85 74.16-64.07 0.53-3.25 0.53-4.3-0.8-3.77zm-71.5 13.67c9.13 0 16.46-0.32 24.73-1.16l-3.33 22.64c-7.26 1.65-13.96 2.19-21.4 2.19v-23.67zm-3.5 0v23.47c-8.29-0.21-14.27-0.96-20.9-2.07l-3.37-22c7.34 0.53 15.51 0.6 24.27 0.6zm-28.37-1.03 3.26 21.35c-6.28-1.4-13.05-3.22-17.01-4.61l-5.59-19.42c5.44 1.01 12.34 2.02 19.34 2.68zm-23.52-3.56 4.7 18.59c-6.03-2.28-11.76-4.8-14.95-6.5-2.38-5.95-3.32-13.1-3.32-14.69 3.19 0.96 7.99 1.8 13.57 2.6zm-7.34 18.79c3.96 1.97 7.93 3.6 12.7 5.2l-1.7 9.76c-4.7-4.63-8.33-9.76-11-14.96zm14.26 18.1 2.6-11.6c6.35 1.97 11.38 3.3 17.94 4.72l-3.12 17.48c-6.62-2.59-12.49-6.42-17.42-10.6zm21.85 12.5 2.48-18.6c6.77 1.03 12.85 1.57 20.37 1.57v20.88c-8.69 0-16.21-1.57-22.85-3.85zm26.69 3.85v-21.42c7.66-0.21 14.01-1.03 21.87-1.53l2.13 19.3c-7.52 2.55-15.04 3.52-24 3.65zm28.36-6.04-3.19-17.62c6.21-1.39 12.26-2.91 18.13-4.73l2.06 12.24c-5.17 4.63-10.1 7.68-17 10.11zm20.19-13.52-1.49-9.96c5.93-2.11 9.43-3.63 14.06-5.67-3.26 6.49-7.22 11.14-12.57 15.63zm14.46-21.88c-5 2.79-9.45 5.14-14.74 7.25l4.45-18.37c5.87-1.09 11.46-2.44 14.13-3.28-0.55 4.89-1.74 9.83-3.84 14.4z" fill="#754D29"/>
  <path d="m41.89 139.6c-1.16-4.46-0.75-10.49 4.35-16 4.38-4.3 10.77-4.62 13.81-2.9 1.39 0.76 0.76 1.51-0.27 1.65-10.76 1.58-15.14 9.8-16.73 16.98-0.41 1.39-0.89 1.32-1.16 0.27z" fill="#754D29"/>
  <path d="m206.9 139.6c1.16-4.46 0.75-10.49-4.35-16-4.38-4.3-10.77-4.62-13.81-2.9-1.39 0.76-0.76 1.51 0.27 1.65 10.76 1.58 15.14 9.8 16.73 16.98 0.41 1.39 0.89 1.32 1.16 0.27z" fill="#754D29"/>
</svg>